<svg xmlns="http://www.w3.org/2000/svg" width="19.486" height="36.996" viewBox="0 0 19.486 36.996"><g transform="translate(-1539 -1283)"><path d="M9.933,20H8.683a2.5,2.5,0,0,1-2.5-2.5,1.208,1.208,0,0,0-1.207-1.207,1.186,1.186,0,0,0-.6.163A2.5,2.5,0,0,1,.96,15.541L.336,14.458a2.5,2.5,0,0,1,.914-3.415,1.205,1.205,0,0,0,0-2.088A2.5,2.5,0,0,1,.336,5.541L.96,4.459a2.5,2.5,0,0,1,3.415-.915,1.186,1.186,0,0,0,.6.163A1.208,1.208,0,0,0,6.183,2.5,2.5,2.5,0,0,1,8.683,0h1.25a2.5,2.5,0,0,1,2.5,2.5,1.208,1.208,0,0,0,1.207,1.207,1.189,1.189,0,0,0,.6-.164,2.5,2.5,0,0,1,3.415.915l.625,1.083a2.5,2.5,0,0,1-.915,3.415,1.206,1.206,0,0,0,0,2.088,2.5,2.5,0,0,1,.915,3.415l-.625,1.083a2.5,2.5,0,0,1-3.415.915,1.188,1.188,0,0,0-.6-.163A1.208,1.208,0,0,0,12.433,17.5,2.5,2.5,0,0,1,9.933,20ZM9.309,7a3,3,0,1,0,3,3A3,3,0,0,0,9.309,7Z" transform="translate(1539.87 1283)" fill="#cecece"/><path d="M22.991,30.5v6.246H21.877v-2.66H19.92v-.914h1.957V30.5Zm-8.754,5.3a3.734,3.734,0,0,0,2.625-3.434v-.234H14.588v-.9h5.66v.9H18v.223a3.461,3.461,0,0,0,2.531,3.164l-.574.879a4.191,4.191,0,0,1-2.5-2.285,4.449,4.449,0,0,1-2.631,2.578Zm1.688,3.223c-.006-1.248,1.342-1.975,3.551-1.98s3.545.732,3.551,1.98S21.672,40.99,19.475,41,15.918,40.264,15.924,39.016Zm1.1,0c-.006.709.908,1.113,2.449,1.1,1.529.012,2.443-.393,2.449-1.1S21,37.9,19.475,37.9,17.02,38.3,17.026,39.016Z" transform="translate(1534.87 1279)" fill="#999"/><path d="M12.92,30.5v5.4H11.806V33.2H9.591v-.9h2.215V30.5ZM4.13,35.055a3.514,3.514,0,0,0,2.625-3.3v-.914h1.1v.914A3.358,3.358,0,0,0,10.4,34.832l-.586.867a4.2,4.2,0,0,1-2.49-2.191,4.22,4.22,0,0,1-2.6,2.438ZM6.052,37.27v-.879H12.92V39H7.166v.973h6.117v.891H6.076V38.16h5.742V37.27Z" transform="translate(1534.87 1279)" fill="#999"/></g></svg>