<svg xmlns="http://www.w3.org/2000/svg" width="38.604" height="37.043" viewBox="0 0 38.604 37.043"><g transform="translate(-1461 -1283)"><path d="M8.628,20H8.416l-.893-.792-.951-.845a.318.318,0,0,0-.426,0l-.952.845L4.3,20H4.089L3.2,19.208l-.949-.845a.318.318,0,0,0-.426,0l-.952.845-.336.3a.314.314,0,0,1-.212.083A.327.327,0,0,1,.1,19.5a.316.316,0,0,1-.1-.233V1.793A1.8,1.8,0,0,1,1.793,0h13.45a1.8,1.8,0,0,1,1.794,1.793v13.68l0,3.794a.322.322,0,0,1-.321.32.313.313,0,0,1-.211-.082l-.335-.3-.951-.845a.318.318,0,0,0-.426,0l-.952.845L12.951,20h-.213l-.892-.792-.95-.845a.318.318,0,0,0-.426,0l-.95.845L8.628,20ZM4,11a.75.75,0,0,0,0,1.5H8.5a.75.75,0,1,0,0-1.5ZM3.516,6.25a.75.75,0,0,0,0,1.5h8.5a.75.75,0,0,0,0-1.5Z" transform="translate(1471.484 1283)" fill="#cecece"/><path d="M38.62,30.449V41.043H37.308V30.449Zm-8.777,7.676c2.777-1.318,4.055-3.111,4.289-5.52h-3.75V31.574h5.074c0,3.152-1.225,5.83-4.934,7.594Z" transform="translate(1460.984 1279)" fill="#999"/><path d="M29.381,38.7v1.066H19.7V38.7h4.172V36.637H20.768V31.152h1.3v1.734h4.91V31.152h1.3v5.484H25.163V38.7Zm-7.312-3.117h4.91V33.93h-4.91Z" transform="translate(1460.984 1279)" fill="#999"/><path d="M18.5,37.211v3.832H17.2v-2.8H11.283V37.211ZM9.771,33.6a2.6,2.6,0,0,1,2.8-2.566,2.8,2.8,0,0,1,2.133.879h2.5V30.449h1.3v6.258H17.2V35.3H14.716a2.838,2.838,0,0,1-2.144.9A2.621,2.621,0,0,1,9.771,33.6Zm1.242,0a1.452,1.452,0,0,0,1.559,1.5,1.458,1.458,0,0,0,1.535-1.5,1.444,1.444,0,0,0-1.535-1.465A1.438,1.438,0,0,0,11.013,33.6Zm4.254.645H17.2V32.98H15.273a2.7,2.7,0,0,1,.076.621A2.592,2.592,0,0,1,15.267,34.246Z" transform="translate(1460.984 1279)" fill="#999"/><path d="M8.653,30.449V41.043H7.4V35.688H6.227V40.5H5.009V30.648H6.227v3.973H7.4V30.449ZM.016,38.406V31.668H1.329v5.59a17.349,17.349,0,0,0,3.023-.316l.129,1.137a21.162,21.162,0,0,1-3.762.328Z" transform="translate(1460.984 1279)" fill="#999"/></g></svg>