<svg xmlns="http://www.w3.org/2000/svg" width="18.667" height="36.201" viewBox="0 0 18.667 36.201"><g transform="translate(-1510 -1283)"><path d="M18.667,18.667H0V5.939L9.333,0l9.334,5.939V18.666ZM6.535,10.917a1,1,0,1,0,0,2h6a1,1,0,0,0,0-2Z" transform="translate(1510 1283)" fill="#cecece"/><path d="M17.6,37.832v3.035H10.35V37.832Zm-8.4-.715v-.879h4.23v-.715c-1.857-.076-2.9-.574-2.894-1.476-.006-.979,1.242-1.482,3.445-1.488s3.451.51,3.445,1.488c.006.9-1.02,1.4-2.883,1.476v.715h4.231v.879Zm.492-4.934v-.856h3.738v-.973h1.113v.973h3.691v.856Zm1.758,7.828h5.074V38.688H11.451Zm.27-5.965c-.006.475.8.726,2.262.726s2.262-.252,2.262-.726-.785-.715-2.262-.727C12.518,33.332,11.715,33.566,11.721,34.047Z" transform="translate(1505.333 1278.333)" fill="#999"/></g></svg>