<svg width="16" height="16" viewBox="0 0 16 16" fill="none" xmlns="http://www.w3.org/2000/svg">
<g clip-path="url(#clip0_4136_15671)">
<path d="M13.334 0H2.666C1.19361 0 0 1.19361 0 2.666V13.334C0 14.8064 1.19361 16 2.666 16H13.334C14.8064 16 16 14.8064 16 13.334V2.666C16 1.19361 14.8064 0 13.334 0Z" fill="#D3FFB6"/>
<path fill-rule="evenodd" clip-rule="evenodd" d="M8.00005 3.604C7.33805 3.604 6.80005 4.144 6.80005 4.81C6.80005 5.476 7.33805 6.016 8.00005 6.016C8.66205 6.016 9.20005 5.476 9.20005 4.81C9.20005 4.144 8.66205 3.604 8.00005 3.604Z" fill="#49BF4F"/>
<path d="M9 12.9961H7C6.448 12.9961 6 12.5481 6 11.9961C6 11.4441 6.448 10.9961 7 10.9961H9C9.552 10.9961 10 11.4441 10 11.9961C10 12.5481 9.552 12.9961 9 12.9961Z" fill="#49BF4F"/>
<path d="M8.00006 12.996C7.44806 12.996 7.00006 12.548 7.00006 11.996V9.18403C6.47606 9.15203 6.06006 8.71804 6.06006 8.18604C6.06006 7.65404 6.50806 7.18604 7.06006 7.18604H8.00006C8.55206 7.18604 9.00006 7.63404 9.00006 8.18604V11.998C9.00006 12.55 8.55206 12.998 8.00006 12.998V12.996Z" fill="#49BF4F"/>
</g>
<defs>
<clipPath id="clip0_4136_15671">
<rect width="16" height="16" fill="white"/>
</clipPath>
</defs>
</svg>
