<svg width="28" height="28" viewBox="0 0 28 28" fill="none" xmlns="http://www.w3.org/2000/svg">
<path d="M14 24.5C19.799 24.5 24.5 19.799 24.5 14C24.5 8.20101 19.799 3.5 14 3.5C8.20101 3.5 3.5 8.20101 3.5 14C3.5 19.799 8.20101 24.5 14 24.5Z" stroke="#1B5EAD" stroke-width="2" stroke-linejoin="round"/>
<path d="M12.8557 16.3808C12.8324 15.8091 12.9257 15.2491 13.1241 14.7124C13.3807 14.1874 13.7424 13.7325 14.1857 13.3475C14.5474 13.0325 14.8857 12.6824 15.1891 12.2974C15.3991 11.9941 15.5157 11.6325 15.5157 11.2591C15.5391 10.8508 15.4107 10.4425 15.1424 10.1391C14.8391 9.85912 14.4424 9.7191 14.0341 9.7541C13.6257 9.73076 13.2174 9.87078 12.9024 10.1391C12.6107 10.4075 12.4591 10.7808 12.4707 11.1658H10.4874C10.4641 10.3141 10.8257 9.50911 11.4674 8.96077C12.1907 8.40077 13.1007 8.1091 14.0224 8.15577C14.9441 8.09744 15.8541 8.38911 16.5774 8.96077C17.2074 9.53244 17.5341 10.3491 17.4874 11.1891C17.4291 12.1575 16.9857 13.0674 16.2507 13.7091L15.2474 14.6541C14.8624 15.1441 14.6641 15.7508 14.6991 16.3691H12.8441L12.8557 16.3808ZM12.7157 18.8191C12.7157 18.5391 12.8091 18.2591 13.0191 18.0724C13.2407 17.8741 13.5324 17.7691 13.8357 17.7808C14.1391 17.7691 14.4307 17.8741 14.6524 18.0724C14.8507 18.2708 14.9557 18.5391 14.9557 18.8074C14.9557 19.0758 14.8507 19.3441 14.6641 19.5308C14.4424 19.7408 14.1391 19.8458 13.8357 19.8224C13.5324 19.8458 13.2291 19.7408 13.0074 19.5308C12.8207 19.3441 12.7157 19.0758 12.7157 18.8074V18.8191Z" fill="#1B5EAD"/>
</svg>
