<svg width="16" height="20" viewBox="0 0 16 20" fill="none" xmlns="http://www.w3.org/2000/svg">
<g clip-path="url(#clip0_4136_15657)">
<path d="M14.2182 2.53418H1.78183C0.797751 2.53418 0 3.33193 0 4.31601V17.4813C0 18.4654 0.797751 19.2631 1.78183 19.2631H14.2182C15.2022 19.2631 16 18.4654 16 17.4813V4.31601C16 3.33193 15.2022 2.53418 14.2182 2.53418Z" fill="#FFD4E0"/>
<path d="M11.1141 0.736328H4.88377C4.347 0.736328 3.91187 1.17147 3.91187 1.70823V3.40502C3.91187 3.94179 4.347 4.37693 4.88377 4.37693H11.1141C11.6509 4.37693 12.086 3.94179 12.086 3.40502V1.70823C12.086 1.17147 11.6509 0.736328 11.1141 0.736328Z" fill="#FF6482"/>
<path d="M7.08676 15.0578C7.08676 15.0578 7.07664 15.0578 7.07259 15.0578C6.77697 15.0538 6.49755 14.9201 6.30721 14.6934L3.58993 11.4233C3.23356 10.994 3.29228 10.3542 3.72154 9.99784C4.1508 9.63945 4.79064 9.7002 5.147 10.1295L7.10701 12.4884L10.6788 8.42457C11.0473 8.00341 11.6871 7.96292 12.1083 8.33346C12.5274 8.70197 12.5699 9.34181 12.1994 9.76297L7.84404 14.7156C7.65168 14.9343 7.37429 15.0599 7.08271 15.0599L7.08676 15.0578Z" fill="#FF6482"/>
</g>
<defs>
<clipPath id="clip0_4136_15657">
<rect width="16" height="18.527" fill="white" transform="translate(0 0.736328)"/>
</clipPath>
</defs>
</svg>
