<svg width="30" height="30" viewBox="0 0 30 30" fill="none" xmlns="http://www.w3.org/2000/svg">
<path d="M19.9317 8.54364L20.4317 9.40967L19.9317 8.54364ZM23.3468 9.4587L24.2128 8.9587V8.9587L23.3468 9.4587ZM23.9718 10.5412L23.1058 11.0412V11.0412L23.9718 10.5412ZM23.0567 13.9563L23.5567 14.8223L23.0567 13.9563ZM23.0567 16.0436L22.5567 16.9097L23.0567 16.0436ZM23.9718 19.4587L24.8378 19.9587L23.9718 19.4587ZM23.3468 20.5412L22.4808 20.0412L23.3468 20.5412ZM19.9317 21.4563L20.4317 20.5903V20.5903L19.9317 21.4563ZM10.0663 21.4563L9.56634 20.5903L9.56634 20.5903L10.0663 21.4563ZM6.65127 20.5412L7.5173 20.0412L6.65127 20.5412ZM6.02627 19.4587L5.16025 19.9587H5.16025L6.02627 19.4587ZM6.94134 16.0436L6.44134 15.1776H6.44134L6.94134 16.0436ZM6.94136 13.9563L6.44136 14.8223L6.94136 13.9563ZM6.0263 10.5412L5.16028 10.0412L5.16028 10.0412L6.0263 10.5412ZM6.6513 9.4587L7.51733 9.9587L6.6513 9.4587ZM10.0664 8.54364L9.56636 9.40967H9.56636L10.0664 8.54364ZM14.3739 4C12.4409 4 10.8739 5.567 10.8739 7.5H12.8739C12.8739 6.67157 13.5455 6 14.3739 6V4ZM15.6239 4H14.3739V6H15.6239V4ZM19.1239 7.5C19.1239 5.567 17.5569 4 15.6239 4V6C16.4524 6 17.1239 6.67157 17.1239 7.5H19.1239ZM24.2128 8.9587C23.2463 7.28468 21.1057 6.71112 19.4317 7.67761L20.4317 9.40967C21.1492 8.99545 22.0665 9.24126 22.4808 9.9587L24.2128 8.9587ZM24.8378 10.0412L24.2128 8.9587L22.4808 9.9587L23.1058 11.0412L24.8378 10.0412ZM23.5567 14.8223C25.2307 13.8558 25.8043 11.7153 24.8378 10.0412L23.1058 11.0412C23.52 11.7587 23.2742 12.6761 22.5567 13.0903L23.5567 14.8223ZM24.8378 19.9587C25.8043 18.2847 25.2308 16.1441 23.5567 15.1776L22.5567 16.9097C23.2742 17.3239 23.52 18.2413 23.1058 18.9587L24.8378 19.9587ZM24.2128 21.0412L24.8378 19.9587L23.1058 18.9587L22.4808 20.0412L24.2128 21.0412ZM19.4317 22.3223C21.1058 23.2888 23.2463 22.7153 24.2128 21.0412L22.4808 20.0412C22.0666 20.7587 21.1492 21.0045 20.4317 20.5903L19.4317 22.3223ZM15.6239 26C17.5569 26 19.1239 24.433 19.1239 22.5H17.1239C17.1239 23.3284 16.4524 24 15.6239 24V26ZM14.3739 26H15.6239V24H14.3739V26ZM10.8739 22.5C10.8739 24.433 12.4409 26 14.3739 26V24C13.5455 24 12.8739 23.3284 12.8739 22.5H10.8739ZM5.78525 21.0412C6.75174 22.7153 8.89231 23.2888 10.5663 22.3223L9.56634 20.5903C8.8489 21.0045 7.93151 20.7587 7.5173 20.0412L5.78525 21.0412ZM5.16025 19.9587L5.78525 21.0412L7.5173 20.0412L6.8923 18.9587L5.16025 19.9587ZM6.44134 15.1776C4.76731 16.1441 4.19375 18.2847 5.16025 19.9587L6.8923 18.9587C6.47808 18.2413 6.7239 17.3239 7.44134 16.9097L6.44134 15.1776ZM5.16028 10.0412C4.19378 11.7153 4.76734 13.8558 6.44136 14.8223L7.44136 13.0903C6.72393 12.6761 6.47811 11.7587 6.89233 11.0412L5.16028 10.0412ZM5.78528 8.9587L5.16028 10.0412L6.89233 11.0412L7.51733 9.9587L5.78528 8.9587ZM10.5664 7.67761C8.89234 6.71112 6.75177 7.28468 5.78528 8.9587L7.51733 9.9587C7.93154 9.24126 8.84893 8.99545 9.56636 9.40967L10.5664 7.67761ZM9.56636 9.40967C11.0364 10.2584 12.8739 9.19738 12.8739 7.5H10.8739C10.8739 7.6579 10.703 7.7565 10.5664 7.67761L9.56636 9.40967ZM7.44134 16.9097C8.91137 16.0609 8.91148 13.939 7.44136 13.0903L6.44136 14.8223C6.57807 14.9012 6.57812 15.0986 6.44134 15.1776L7.44134 16.9097ZM12.8739 22.5C12.8739 20.8027 11.0365 19.7415 9.56634 20.5903L10.5663 22.3223C10.7029 22.2435 10.8739 22.342 10.8739 22.5H12.8739ZM20.4317 20.5903C18.9617 19.7415 17.1239 20.8024 17.1239 22.5H19.1239C19.1239 22.3421 19.2949 22.2433 19.4317 22.3223L20.4317 20.5903ZM22.5567 13.0903C21.0866 13.939 21.0867 16.0609 22.5567 16.9097L23.5567 15.1776C23.42 15.0986 23.42 14.9013 23.5567 14.8223L22.5567 13.0903ZM17.1239 7.5C17.1239 9.19764 18.9617 10.2584 20.4317 9.40967L19.4317 7.67761C19.2948 7.75664 19.1239 7.65779 19.1239 7.5H17.1239ZM16.7263 14.9999C16.7263 15.9539 15.9529 16.7272 14.999 16.7272V18.7272C17.0575 18.7272 18.7263 17.0584 18.7263 14.9999H16.7263ZM14.999 16.7272C14.045 16.7272 13.2717 15.9539 13.2717 14.9999H11.2717C11.2717 17.0584 12.9405 18.7272 14.999 18.7272V16.7272ZM13.2717 14.9999C13.2717 14.046 14.045 13.2726 14.999 13.2726V11.2726C12.9405 11.2726 11.2717 12.9414 11.2717 14.9999H13.2717ZM14.999 13.2726C15.9529 13.2726 16.7263 14.046 16.7263 14.9999H18.7263C18.7263 12.9414 17.0575 11.2726 14.999 11.2726V13.2726Z" fill="#111111"/>
</svg>
