<svg width="48" height="48" viewBox="0 0 48 48" fill="none" xmlns="http://www.w3.org/2000/svg">
<g clip-path="url(#clip0_27_12268)">
<rect width="48" height="48" rx="24" fill="white"/>
<rect width="48" height="48" fill="#002063"/>
<path d="M28.0881 30.3261C28.0881 33.7835 26.9749 35.1617 24.9501 35.7339C24.8936 35.75 24.8936 35.8064 24.9501 35.8225C25.4099 35.9354 25.9423 35.9998 26.5473 35.9998C29.6047 35.9998 31.8714 33.9125 31.8714 30.3261V18.3662H28.08V30.3261H28.0881Z" fill="white"/>
<path d="M20.7229 23.9269C17.3509 21.8073 17.0605 21.3882 17.0605 20.6468C17.0605 19.9537 17.8269 19.1397 20.1098 18.4627C20.1905 18.4386 20.1985 18.366 20.1017 18.358C16.6249 18.1807 14.1807 19.9537 14.1807 21.9443C14.1807 23.395 14.7131 24.2976 18.1818 26.4736C21.5861 28.6093 21.9491 29.0203 21.9491 29.8101C21.9491 30.7692 20.852 31.7202 18.8191 32.3246C18.7384 32.3488 18.7304 32.4213 18.8272 32.4294C22.6025 32.6309 24.9499 30.737 24.9499 28.7463C24.9499 27.3843 24.4175 26.248 20.731 23.9269H20.7229Z" fill="white"/>
<path d="M16.9798 29.198C16.3264 28.4807 15.3745 27.9488 14.0838 27.7715C14.0596 27.7715 14.0354 27.7715 14.0193 27.7876C14.0032 27.8037 13.9951 27.8198 14.0032 27.844C14.0516 29.1496 14.471 30.149 15.1245 30.8743C15.7698 31.5996 16.7298 32.1235 18.0205 32.3008C18.0447 32.3008 18.0689 32.3008 18.0769 32.2847C18.0931 32.2685 18.1011 32.2524 18.1011 32.2282C18.0527 30.9226 17.6252 29.9233 16.9798 29.198Z" fill="#32A238"/>
<path d="M23.7318 19.9138C23.0784 19.1885 22.1346 18.6646 20.8358 18.4873C20.8116 18.4873 20.7874 18.4873 20.7713 18.5034C20.7551 18.5195 20.7471 18.5357 20.7471 18.5598C20.7955 19.8654 21.2149 20.8648 21.8684 21.5821C22.5218 22.2993 23.4737 22.8312 24.7644 23.0085C24.7886 23.0085 24.8128 23.0085 24.8208 22.9924C24.837 22.9763 24.845 22.9602 24.845 22.936C24.7966 21.6304 24.3772 20.6311 23.7237 19.9138H23.7318Z" fill="#32A238"/>
<path d="M30.4676 12.7972C29.6529 11.8946 28.4509 11.2337 26.8295 11C26.7972 11 26.773 11 26.7569 11.0161C26.7327 11.0322 26.7246 11.0564 26.7246 11.0887C26.7811 12.7247 27.3216 13.9819 28.1363 14.8926C28.9511 15.8033 30.153 16.4642 31.7745 16.6898C31.8067 16.6898 31.8309 16.6898 31.8471 16.6737C31.8632 16.6576 31.8793 16.6334 31.8713 16.6012C31.8067 14.9651 31.2743 13.7079 30.4596 12.7972H30.4676Z" fill="#32A238"/>
</g>
<defs>
<clipPath id="clip0_27_12268">
<rect width="48" height="48" rx="24" fill="white"/>
</clipPath>
</defs>
</svg>
