<svg width="48" height="48" viewBox="0 0 48 48" fill="none" xmlns="http://www.w3.org/2000/svg">
<g clip-path="url(#clip0_27_13311)">
<rect width="48" height="48" rx="24" fill="white"/>
<rect width="48" height="48" fill="#0056A7"/>
<path d="M33.67 25.39C32.61 28.02 30.84 28.77 30.84 28.77C36.06 23.48 32.87 17.38 32.87 17.38C32.1 16.01 33.08 15.42 33.08 15.42C30.84 15.98 31.54 17.84 31.54 17.84C32.67 20.53 32.44 22.71 32.06 24.05L31.32 23.64V23.62C31.32 23.62 33.08 16.72 25.94 14.3V13H24.43V21.55L31.44 25.55C31.31 25.81 31.18 26.05 31.04 26.29L24 22.21L16.93 26.29C16.79 26.06 16.65 25.81 16.53 25.55L23.54 21.55V13H22.03V14.3C14.86 16.72 16.62 23.62 16.62 23.62V23.64L15.89 24.05C15.51 22.7 15.28 20.52 16.41 17.84C16.41 17.84 17.11 15.98 14.87 15.42C14.87 15.42 15.85 16.02 15.08 17.38C15.08 17.38 11.89 23.48 17.11 28.77C17.11 28.77 15.34 28.02 14.28 25.39C14.28 25.39 13.68 24.11 12 24.39C12 24.39 12.63 24.68 13.01 25.84C13.01 25.84 14.53 30.66 20.38 31.4V34.06H23.25V30.14C23.25 30.14 20.2 30.11 17.87 27.55L18.59 27.13C18.73 27.26 20.94 29.3 23.96 29.36H24C27.02 29.31 29.23 27.26 29.37 27.13L30.09 27.55C27.76 30.11 24.71 30.14 24.71 30.14V34.06H27.58V31.4C33.43 30.66 34.95 25.84 34.95 25.84C35.32 24.68 35.96 24.39 35.96 24.39C34.28 24.11 33.68 25.39 33.68 25.39H33.67ZM29.92 22.84L25.96 20.63L25.94 15.9H25.96C25.96 15.9 30.73 17.2 29.92 22.84ZM21.98 15.91H22L21.98 20.64L18.02 22.86C17.21 17.21 21.98 15.91 21.98 15.91ZM23.98 23.99L27.92 26.3H27.88C26.47 27.4 25.12 27.77 23.96 27.77C22.8 27.77 21.45 27.4 20.04 26.29L20 26.31L23.97 24L23.98 23.99Z" fill="white"/>
</g>
<defs>
<clipPath id="clip0_27_13311">
<rect width="48" height="48" rx="24" fill="white"/>
</clipPath>
</defs>
</svg>
