<svg width="48" height="48" viewBox="0 0 48 48" fill="none" xmlns="http://www.w3.org/2000/svg">
<g clip-path="url(#clip0_27_12786)">
<rect width="48" height="48" rx="24" fill="white"/>
<rect width="48" height="48" fill="#E72410"/>
<path d="M12.0352 23.9968C11.9905 24.0199 11.9879 24.0623 12.0301 24.0905L15.8872 26.6532L16.9927 21.4238L12.0352 23.9968Z" fill="white"/>
<path d="M34.8733 21.4232H33.898C33.8476 21.4232 33.7691 21.4424 33.7238 21.4655L28.8352 23.9987C28.7899 24.0218 28.788 24.0642 28.8301 24.0918L32.6227 26.6025C32.6649 26.6301 32.7408 26.6532 32.7919 26.6532H33.7665C33.8169 26.6532 33.824 26.6301 33.7825 26.6025L29.9113 24.0404L34.8829 21.4642C34.9282 21.4411 34.9231 21.4219 34.8726 21.4219L34.8733 21.4232Z" fill="white"/>
<path d="M32.7842 21.4229H25.9897L24.8855 26.6542H31.6793C31.7297 26.6542 31.7367 26.6311 31.6946 26.6035L27.8305 24.0421L32.795 21.4659C32.8403 21.4428 32.8352 21.4235 32.7848 21.4235L32.7842 21.4229Z" fill="white"/>
<path d="M36.9592 21.4232H35.9839C35.9329 21.4232 35.855 21.4424 35.8097 21.4655L30.9212 23.9987C30.8765 24.0218 30.8746 24.0642 30.916 24.0918L34.7087 26.6025C34.7508 26.6301 34.8274 26.6532 34.8778 26.6532H35.8531C35.9035 26.6532 35.9105 26.6301 35.8684 26.6025L31.9973 24.0404L36.9688 21.4642C37.0141 21.4411 37.0097 21.4219 36.9586 21.4219L36.9592 21.4232Z" fill="white"/>
<path d="M32.4828 18H16.4864C15.5934 18 14.9685 18.5649 14.8211 19.2634C14.74 19.6466 14.8849 19.9875 15.1785 20.2212L20.9262 24.0376L20.9307 24.0351V24.0376L32.4937 18.0424C32.5383 18.0193 32.5345 18 32.4835 18H32.4828Z" fill="white"/>
<path d="M29.9457 30.0252L20.9314 24.0376L20.9301 24.0395L20.9263 24.0376L13.565 27.8553C13.1731 28.0877 12.8846 28.4292 12.8036 28.8131C12.6549 29.5103 13.0404 30.0759 13.934 30.0759H29.9304C29.9815 30.0759 29.9879 30.0528 29.9457 30.0252Z" fill="white"/>
</g>
<defs>
<clipPath id="clip0_27_12786">
<rect width="48" height="48" rx="24" fill="white"/>
</clipPath>
</defs>
</svg>
