<svg width="48" height="48" viewBox="0 0 48 48" fill="none" xmlns="http://www.w3.org/2000/svg">
<g clip-path="url(#clip0_27_13056)">
<rect width="48" height="48" rx="24" fill="white"/>
<rect width="48" height="48" fill="#3147A4"/>
<path d="M30.8372 21.8274L25.0924 16.0839C23.9033 14.891 22.4681 14.9656 21.9623 15.0491C17.4464 15.7928 14 19.7238 14 24.4608C14 29.7299 18.262 34.0003 23.5177 34.0003C28.6512 34.0003 32.8335 29.897 33.0283 24.7988C33.0303 24.7397 33.0097 24.5642 32.8862 24.4852C32.7339 24.3907 32.4312 24.426 32.4312 24.426H28.7489C28.7489 24.426 28.3993 24.426 28.2907 24.4762C28.2193 24.509 28.121 24.5842 28.121 24.5842L23.6334 29.0814C23.5601 29.1547 23.4412 29.1547 23.3679 29.0814L18.8559 24.5591C18.782 24.4865 18.782 24.3669 18.8559 24.293L23.3679 19.7713C23.4412 19.6968 23.5601 19.6968 23.6334 19.7713L27.7732 23.9202C27.7732 23.9202 27.9892 24.1137 28.193 24.1664C28.3806 24.2158 28.6602 24.0243 28.6602 24.0243L30.8372 21.8274Z" fill="white"/>
<path fill-rule="evenodd" clip-rule="evenodd" d="M32.9351 18.8796L29.8525 15.8041C26.4106 12.4786 22.4333 14.7687 22.4333 14.7687C22.4333 14.7687 24.1238 13.8592 26.284 16.139L31.3758 21.2635L32.8778 19.7736C32.8778 19.7736 33.0591 19.5468 33.1015 19.3405C33.1401 19.1483 32.9351 18.8796 32.9351 18.8796Z" fill="white"/>
</g>
<defs>
<clipPath id="clip0_27_13056">
<rect width="48" height="48" rx="24" fill="white"/>
</clipPath>
</defs>
</svg>
