<svg width="48" height="48" viewBox="0 0 48 48" fill="none" xmlns="http://www.w3.org/2000/svg">
<g clip-path="url(#clip0_27_11505)">
<rect width="48" height="48" rx="24" fill="white"/>
<rect width="48" height="48" fill="#B10A32"/>
<path fill-rule="evenodd" clip-rule="evenodd" d="M25.2884 26.1196L21.3467 26.1184C21.3467 26.1184 21.2275 26.1052 21.1673 26.0007C21.1082 25.8986 21.1238 25.8442 21.1238 25.8442V22.1702C21.1238 22.1702 21.1191 22.0397 21.189 21.9616C21.2562 21.8866 21.3797 21.8831 21.3797 21.8831H26.5733C26.5733 21.8831 26.6564 21.8703 26.7519 21.9235C26.8347 21.9682 26.8801 22.1406 26.8801 22.1406V25.911C26.8801 25.911 26.8347 26.0159 26.7892 26.0528C26.7484 26.0877 26.663 26.1173 26.663 26.1173L25.2884 26.1196ZM25.2581 19.52V15.4556C29.432 16.0631 32.6384 19.6567 32.6384 23.9988C32.6384 28.3406 29.4394 31.9393 25.2659 32.5487L25.2589 28.4563H26.8786C28.2307 28.4563 29.2238 27.4429 29.2238 26.0912V21.8563C29.2238 20.505 28.1471 19.518 26.7951 19.518L25.2581 19.52ZM18.7315 21.8563C18.7315 20.505 19.5538 19.5114 20.9047 19.5114L22.7042 19.506V15.4653C18.5513 16.0918 15.3659 19.6715 15.3659 23.9988C15.3659 28.327 18.5517 31.916 22.7042 32.5417L22.6976 28.4858L21.1925 28.4847C19.84 28.4847 18.7315 27.4425 18.7315 26.0912V21.8563ZM13 23.9988C13 17.9244 17.9263 13 24.0019 13C30.0784 13 35.0035 17.9248 35.0035 23.9988C35.0035 30.076 30.078 35 24.0019 35C17.9263 35 13 30.0764 13 23.9988Z" fill="white"/>
</g>
<defs>
<clipPath id="clip0_27_11505">
<rect width="48" height="48" rx="24" fill="white"/>
</clipPath>
</defs>
</svg>
