<svg width="48" height="48" viewBox="0 0 48 48" fill="none" xmlns="http://www.w3.org/2000/svg">
<g clip-path="url(#clip0_27_13770)">
<rect width="48" height="48" rx="24" fill="white"/>
<rect width="48" height="48" fill="#0046FF"/>
<path d="M34.8513 23.5103C34.859 23.6712 34.8636 23.8312 34.8645 23.9906V23.9993C34.8645 29.0885 31.4309 33.3705 26.7665 34.6268C26.0011 34.8315 25.216 34.9528 24.4249 34.9884C24.1867 34.9993 23.9494 35.0024 23.7137 34.9982C18.1813 34.8891 13.6564 30.6446 13.0655 25.2094C13.0403 24.9741 13.0229 24.7379 13.0132 24.5014C13.0056 24.3418 13.0012 24.1821 13 24.0224V23.9993C13 17.9255 17.8939 13 23.9321 13C29.0816 13 33.3983 16.5817 34.5584 21.4028C34.7233 22.0941 34.8214 22.7999 34.8513 23.5103ZM29.7024 18.4793C29.0627 18.3014 28.5897 18.1488 28.4502 17.8531C28.3842 17.7132 28.4245 17.5721 28.5157 17.5064C28.6143 17.4339 28.7472 17.4581 28.9022 17.5342C29.1311 17.6456 29.4114 17.8114 29.6265 17.8381C30.2534 17.9142 30.1389 16.9494 29.0125 16.3894C28.35 16.0583 27.7016 15.9225 26.8233 15.9554C26.4981 15.9688 26.1914 15.9569 25.9194 15.9137C25.5088 15.85 25.0057 15.6746 24.6668 15.6036C24.4075 15.5486 24.2597 15.5558 24.198 15.6427C24.1407 15.725 24.159 15.8464 24.317 16.0474C24.634 16.4496 25.1334 16.897 24.8779 17.9435C24.2454 20.538 25.1115 21.7253 25.994 21.9202C26.4884 22.0307 26.944 21.9141 27.2221 21.6235C27.4863 21.3454 27.6005 20.8747 27.3458 20.4761C26.9562 19.8657 26.8186 19.3351 27.1669 19.1143C27.4849 18.9123 27.9369 19.0985 28.2804 19.8719C28.8301 21.1113 29.5454 21.44 30.2605 20.5584C30.8464 19.8364 30.8235 18.7909 29.7024 18.4793ZM27.7118 25.2511C24.7469 23.4635 23.2766 22.7564 22.0766 21.8945C20.0884 20.468 19.7738 19.405 19.713 18.6654C19.6045 17.3418 20.6 16.1503 21.6135 15.5886C21.6915 15.5409 21.8257 15.4309 21.7674 15.2802C21.7085 15.1279 21.527 15.1573 21.4589 15.1722C19.1925 15.6562 16.9899 17.6643 17.332 20.345C17.4686 21.407 18.1398 23.2002 21.6159 25.2597C22.8016 25.9617 23.8252 26.4939 25.4321 27.4197C27.6081 28.6713 28.6097 30.2841 27.262 32.0434C27.1597 32.1663 27.0718 32.2938 27.1085 32.4049C27.1499 32.5333 27.3182 32.5556 27.4751 32.4845C28.5096 32.0052 29.3637 31.2858 29.7708 30.6188C30.487 29.4443 30.844 27.1409 27.7118 25.2511ZM24.244 32.3889C23.9812 32.3128 23.5824 32.1883 23.2499 32.0423C22.8308 31.8582 22.4519 31.656 22.2848 31.4894C22.1753 31.3788 22.1584 31.2538 22.2459 31.1253C22.7469 30.4009 22.8881 30.1138 23.0281 29.7728C23.3257 29.051 23.0317 28.981 22.57 29.1145C22.0679 29.2592 21.6708 29.4067 21.3629 29.5229C20.9314 29.685 20.6644 29.7842 20.5075 29.7071C20.3439 29.6274 20.3138 29.3415 20.2549 28.8673C20.2135 28.53 20.143 28.1452 20.053 27.7698C19.8673 27.0175 19.5474 27.162 19.2831 27.4696C18.9538 27.8718 18.7723 28.3695 18.6357 28.6308C18.5626 28.7707 18.4787 28.8169 18.3766 28.7947C18.1485 28.7458 17.8473 28.3906 17.5185 27.9683C17.0384 27.3508 16.8244 26.8761 16.5743 26.8468C16.0431 26.7845 16.2793 28.0486 16.7777 29.0906C17.2639 30.1103 18.0182 31.1141 19.2814 31.9173C20.7228 32.8352 22.8528 33.1685 24.161 32.9833C24.5742 32.9247 24.656 32.5081 24.244 32.3889Z" fill="white"/>
</g>
<defs>
<clipPath id="clip0_27_13770">
<rect width="48" height="48" rx="24" fill="white"/>
</clipPath>
</defs>
</svg>
