<svg width="48" height="48" viewBox="0 0 48 48" fill="none" xmlns="http://www.w3.org/2000/svg">
<g clip-path="url(#clip0_27_14030)">
<rect width="48" height="48" rx="24" fill="white"/>
<rect width="48" height="48" fill="#00A76D"/>
<path d="M33.2543 16.9855C31.2312 18.1416 30.5809 18.2861 28.4133 19.5867C29.7139 18.2139 30.1474 17.6358 30.9422 16.4075C28.9191 16.4798 25.9566 16.7688 23.8613 17.2023C25.6676 16.1908 29.3526 15.1069 31.2312 14.8902C30.7977 14.3121 27.185 12.4335 26.2457 12C29.0636 12.2168 32.604 13.3006 34.2659 14.3121C34.9162 14.0954 35.6387 14.0954 36.8671 13.9509C36.578 14.5289 36.578 14.8902 35.3497 15.685C35.711 16.552 34.9162 21.5376 34.1936 22.8382C34.1936 20.7428 33.9769 18.1416 33.2543 16.9855ZM18.4422 34.7601C17.2861 34.3266 16.4191 33.8208 15.552 32.9538C15.841 32.159 16.1301 31.5809 16.6358 30.8584C15.6965 31.0029 14.974 31.0751 14.1792 31.2919C13.4566 30.0636 13.1676 28.9075 12.8786 27.3902C12.6618 29.052 12.6618 30.2081 12.8786 31.5087C12.1561 31.7254 11.578 31.8699 11 32.159C11.8671 32.6647 12.5896 33.0983 13.5289 33.5318C14.0347 34.6156 14.6127 35.4104 15.4798 36.2775C15.263 35.5549 15.1908 34.9769 15.3353 34.1821C16.2746 34.5434 17.2139 34.6879 18.4422 34.7601ZM21.4769 18.2861C21.1156 18.7919 20.6821 19.659 20.6098 20.0202C23.5723 20.4538 26.0289 21.9711 26.0289 21.9711C23.4277 21.5376 22.0549 21.5376 21.0434 21.6821C20.104 21.7543 19.8873 21.8988 19.8873 21.8988C19.1647 23.4162 18.7312 26.0896 18.7312 26.0896C18.2254 24.9335 17.5751 22.6214 17.5751 22.6214C16.2746 23.3439 13.2399 26.1619 13.2399 26.1619C14.9017 22.8382 16.6358 21.3208 16.6358 21.3208C16.0578 20.7428 14.5405 20.4538 13.3844 20.3815C13.9624 20.1647 15.4798 19.8757 16.6358 19.8035H18.4422C19.3815 19.0809 20.8988 18.3584 21.4769 18.2861ZM24.6561 32.6647C24.1503 33.3873 23.6445 33.9653 23.0665 34.6156C22.0549 34.9046 21.2601 34.9769 20.2486 34.9769C20.8266 35.2659 21.4046 35.4827 22.0549 35.6272C21.4046 36.2052 20.8988 36.5665 20.2486 37C21.2601 36.7832 22.6329 36.3497 23.6445 35.6994C24.1503 35.6994 24.6561 35.6994 25.0173 35.6272C24.9451 35.3382 24.8728 35.1214 24.8006 34.6879C25.7399 33.9653 26.4624 33.315 27.185 32.5202C26.3179 33.0983 25.5954 33.5318 24.6561 33.9653V32.6647Z" fill="white"/>
</g>
<defs>
<clipPath id="clip0_27_14030">
<rect width="48" height="48" rx="24" fill="white"/>
</clipPath>
</defs>
</svg>
