<svg width="48" height="48" viewBox="0 0 48 48" fill="none" xmlns="http://www.w3.org/2000/svg">
<g clip-path="url(#clip0_27_14160)">
<rect width="48" height="48" rx="24" fill="white"/>
<rect width="48" height="48" fill="#117ACA"/>
<path d="M20.8718 13C20.7698 12.9999 20.6688 13.02 20.5745 13.059C20.4803 13.098 20.3946 13.1552 20.3225 13.2273C20.2503 13.2994 20.1931 13.385 20.1541 13.4792C20.115 13.5735 20.0949 13.6745 20.0949 13.7765V19.222H34.4793L27.9287 13.0004L20.8718 13ZM35.006 20.8698C35.0063 20.7677 34.9864 20.6665 34.9475 20.5722C34.9086 20.4778 34.8514 20.3921 34.7792 20.3199C34.7069 20.2477 34.6212 20.1906 34.5268 20.1517C34.4324 20.1128 34.3312 20.093 34.2291 20.0933H28.7848V34.4789L35.0036 27.9251L35.006 20.8698ZM27.1354 35C27.5637 35 27.9115 34.6518 27.9115 34.2219V28.7784H13.5259L20.0777 34.9988L27.1354 35ZM13 27.1314C13 27.5605 13.3482 27.9103 13.7781 27.9103H19.2212V13.5239L13.0012 20.0757L13 27.1314Z" fill="white"/>
</g>
<defs>
<clipPath id="clip0_27_14160">
<rect width="48" height="48" rx="24" fill="white"/>
</clipPath>
</defs>
</svg>
