<svg width="48" height="48" viewBox="0 0 48 48" fill="none" xmlns="http://www.w3.org/2000/svg">
<g clip-path="url(#clip0_27_15651)">
<rect width="48" height="48" rx="24" fill="white"/>
<path d="M17.7769 13.285C17.4608 13.4421 17.1791 13.6604 16.948 13.9272C16.7169 14.194 16.541 14.5041 16.4306 14.8394L12.139 27.7403C12.0266 28.0749 11.9817 28.4285 12.0067 28.7806C12.0318 29.1328 12.1264 29.4764 12.285 29.7918C12.4426 30.1067 12.6608 30.3875 12.9271 30.6179C13.1935 30.8482 13.5027 31.0237 13.8371 31.1343L27.9151 35.8608C28.2498 35.9733 28.6036 36.0183 28.9558 35.9933C29.3081 35.9682 29.6519 35.8736 29.9673 35.7149C30.6081 35.3913 31.0883 34.8429 31.3123 34.162L35.6052 21.2626C36.0743 19.8582 35.3092 18.3326 33.9056 17.8638L19.8284 13.138C19.1441 12.9132 18.4192 12.9637 17.7769 13.285Z" fill="white"/>
<path d="M19.0082 28.2617H18.0391V21.5581H19.0082V28.2617ZM24.6583 25.678C23.8937 26.5317 22.9382 27.2205 21.8344 27.6466L21.1984 27.8942V21.9148L21.8263 22.158C22.9326 22.5821 23.8899 23.2686 24.6565 24.1196C25.2041 23.2381 25.5438 22.2184 25.6145 21.1063C25.7896 18.2399 23.9917 15.6106 21.5267 14.696L19.4947 14.0183C18.5763 13.7116 17.6006 14.2191 17.2965 15.1334L12.9904 28.0442C12.6861 28.9636 13.1991 29.96 14.1185 30.2619L23.8907 33.524C24.9235 32.4259 25.5378 30.9999 25.6264 29.495C25.711 28.1527 25.3723 26.8177 24.6583 25.678Z" fill="#0099DA"/>
<path d="M24.093 24.8986C23.5468 24.2526 22.8797 23.7194 22.1292 23.3291V26.4781C22.8812 26.0858 23.5486 25.5491 24.093 24.8986Z" fill="#F15D22"/>
<path d="M31.2181 28.2389L30.0072 28.2447L27.5175 24.8901L30.0466 21.5389L31.2678 21.5356L28.7329 24.8957L31.2181 28.2389ZM33.5946 18.7261L24.6279 15.7305C25.8305 17.0474 26.5683 18.7976 26.5708 20.7175C26.5741 22.235 26.1018 23.684 25.2766 24.899C26.1043 26.1096 26.5827 27.5582 26.5837 29.0757C26.587 30.8208 25.9727 32.5108 24.8494 33.8465L28.2189 34.9722C29.1375 35.2756 30.1115 34.7714 30.4166 33.8538L34.7242 20.9455C35.0278 20.0261 34.513 19.0305 33.5946 18.7261Z" fill="#0056A3"/>
</g>
<rect x="0.5" y="0.5" width="47" height="47" rx="23.5" stroke="#E2E8F0"/>
<defs>
<clipPath id="clip0_27_15651">
<rect width="48" height="48" rx="24" fill="white"/>
</clipPath>
</defs>
</svg>
