<svg width="48" height="48" viewBox="0 0 48 48" fill="none" xmlns="http://www.w3.org/2000/svg">
<g clip-path="url(#clip0_27_15224)">
<rect width="48" height="48" rx="24" fill="white"/>
<path d="M17.3951 22.401C18.1753 22.8652 19.1977 23.1025 20.4326 23.1025H22.662V21.1263H20.9187C20.3077 21.1263 19.7992 21.0567 19.4042 20.9179C18.9982 20.7736 18.6265 20.5258 18.2967 20.18C17.7389 19.5934 17.4558 18.88 17.4558 18.0645C17.4558 17.1973 17.7494 16.458 18.3315 15.8654C18.6257 15.5602 18.9858 15.3264 19.3843 15.1818C19.7649 15.0455 20.239 14.9768 20.7928 14.9768H22.662V13.0006H20.5425C19.8878 13.0006 19.2947 13.0568 18.7803 13.1742C17.942 13.3509 17.1712 13.7619 16.5573 14.3594C16.1267 14.7803 15.776 15.2759 15.5224 15.8221C15.1809 16.528 15.0024 17.3017 15 18.0859C15 18.6765 15.1065 19.2601 15.3125 19.8263C15.7145 20.9408 16.417 21.8075 17.3951 22.401Z" fill="#2B93DD"/>
<path d="M27.2424 13.0001L30.1425 21.1258H26.5762L27.7215 17.1157H25.6657L23.689 23.103H32.9371L29.3698 13.0006L27.2424 13.0001Z" fill="#EE2E3F"/>
<path d="M22.0855 25.6309C21.7837 25.3678 21.4266 25.176 21.0407 25.0697C20.6297 24.9553 20.0784 24.8975 19.4048 24.8975H15.3896V26.8738H19.1152C19.6252 26.8738 19.9899 26.9459 20.2317 27.0927C20.4297 27.2131 20.6665 27.4559 20.6665 27.93C20.6665 28.2848 20.5197 28.5788 20.2461 28.7808C20.0242 28.94 19.658 29.0107 19.0908 29.0107H15.3901V35H17.735V30.9869H19.6406C20.4078 30.9869 21.0322 30.8779 21.4964 30.6635C21.9472 30.4515 22.3328 30.0973 22.6377 29.6067C22.9531 29.1155 23.1198 28.5436 23.1179 27.9599C23.1179 27.525 23.0263 27.0907 22.8432 26.6747C22.6711 26.275 22.4123 25.9184 22.0855 25.6309ZM24.6746 26.8738H31.9501V24.898H24.6746V26.8738ZM24.6751 35H31.9501V33.0228H27.0205V30.9869H31.9501V29.0107H24.6751V35Z" fill="#2B93DD"/>
</g>
<rect x="0.5" y="0.5" width="47" height="47" rx="23.5" stroke="#E2E8F0"/>
<defs>
<clipPath id="clip0_27_15224">
<rect width="48" height="48" rx="24" fill="white"/>
</clipPath>
</defs>
</svg>
