<svg width="48" height="48" viewBox="0 0 48 48" fill="none" xmlns="http://www.w3.org/2000/svg">
<g clip-path="url(#clip0_27_15358)">
<rect width="48" height="48" rx="24" fill="white"/>
<path d="M32.3935 14.0774C32.3206 16.2482 31.3369 17.8482 29.4698 18.7499C24.9795 20.9237 20.4345 22.9852 15.929 25.1317C15.0972 25.5263 15 25.2106 15 24.4911C15.003 22.1928 16.0292 20.4622 18.0543 19.4786C22.499 17.326 27.0015 15.2888 31.4705 13.1879C32.8003 12.5625 32.2447 13.6645 32.3935 14.0774Z" fill="#263877"/>
<path d="M27.8183 22.0714C27.7576 23.978 26.9014 25.3989 25.3166 26.2065C22.5325 27.6274 19.6635 28.8873 16.843 30.2414C16.002 30.6452 16.0172 30.1078 16.0324 29.5735C16.084 27.6638 16.8491 26.0699 18.5553 25.1955C21.3363 23.7655 24.1872 22.4722 27.035 21.1788C28.298 20.605 27.5845 21.7951 27.8183 22.0744V22.0714Z" fill="#315393"/>
<path d="M17.0676 34.1243C17.186 32.3634 17.8843 31.1763 19.205 30.4356C20.3891 29.7737 21.652 29.2515 22.8634 28.6352C23.7499 28.1828 23.7985 28.7263 23.7621 29.3547C23.6589 31.1035 22.8361 32.4272 21.309 33.2651C20.3405 33.7965 19.3052 34.2094 18.3215 34.7224C17.3378 35.2355 16.9097 35.0382 17.0676 34.1213V34.1243Z" fill="#4D83B8"/>
</g>
<rect x="0.5" y="0.5" width="47" height="47" rx="23.5" stroke="#E2E8F0"/>
<defs>
<clipPath id="clip0_27_15358">
<rect width="48" height="48" rx="24" fill="white"/>
</clipPath>
</defs>
</svg>
