<svg width="48" height="48" viewBox="0 0 48 48" fill="none" xmlns="http://www.w3.org/2000/svg">
<g clip-path="url(#clip0_27_15305)">
<rect width="48" height="48" rx="24" fill="white"/>
<path d="M23.9002 14C26.2758 14 28.2115 15.5488 28.747 17.8761C29.3009 20.2816 28.2864 22.8081 25.9407 23.6303C23.1736 24.601 21.9898 26.1821 22.0278 29.1576C22.0624 31.8384 19.9896 33.7568 17.5265 33.9779C15.0472 34.2002 12.8731 32.7262 12.2179 30.3794C11.4982 27.7988 12.5795 25.2332 15.1912 24.2774C17.7499 23.3412 18.8323 21.8177 18.8657 19.0829C18.906 16.0117 21.1112 14 23.9002 14Z" fill="#00A6A6"/>
<path d="M30.7886 23.926C33.6801 23.9525 35.7759 26.099 35.7379 28.9939C35.6999 31.867 33.5281 34.018 30.6861 33.9996C27.8476 33.9812 25.7023 31.7749 25.7322 28.9041C25.761 26.0207 27.9155 23.8995 30.7898 23.926H30.7886Z" fill="#00A6A6"/>
</g>
<rect x="0.5" y="0.5" width="47" height="47" rx="23.5" stroke="#E2E8F0"/>
<defs>
<clipPath id="clip0_27_15305">
<rect width="48" height="48" rx="24" fill="white"/>
</clipPath>
</defs>
</svg>
