<svg width="48" height="48" viewBox="0 0 48 48" fill="none" xmlns="http://www.w3.org/2000/svg">
<g clip-path="url(#clip0_27_15545)">
<rect width="48" height="48" rx="24" fill="white"/>
<path d="M14 28.3317C14.0421 27.5544 14.3404 26.9409 14.9262 26.4839C15.2828 26.2056 15.6517 25.9377 16.042 25.7099C16.1811 25.629 16.4258 25.618 16.5746 25.6833C17.6658 26.159 18.6832 26.082 19.6618 25.3837C20.9524 24.4627 22.261 23.5676 23.5529 22.6479C23.7891 22.4796 23.9548 22.4628 24.202 22.6395C25.4654 23.543 26.7559 24.4083 28.0122 25.3215C29.0238 26.0568 30.0684 26.181 31.2101 25.6775C31.3563 25.6128 31.5997 25.638 31.7421 25.7196C32.1149 25.9338 32.4663 26.1895 32.8074 26.4522C33.8377 27.2451 34.0552 28.6476 33.3154 29.6501C32.5284 30.7161 31.168 30.9517 30.0768 30.1938C28.0924 28.8152 26.1139 27.4289 24.1392 26.0367C23.9503 25.9034 23.8292 25.8943 23.6344 26.0315C21.652 27.4315 19.6657 28.8256 17.6716 30.2086C16.9034 30.7413 16.0743 30.7886 15.2543 30.351C14.4472 29.9206 14.0505 29.2087 14 28.3317Z" fill="#50893C"/>
<path d="M15.8835 23.0699C15.9022 22.4719 16.1566 21.927 16.7054 21.5341C17.0646 21.2765 17.429 21.026 17.7863 20.7665C17.9759 20.6287 18.15 20.628 18.3526 20.7516C19.3156 21.3399 20.2528 21.2707 21.1641 20.6235C21.9731 20.0501 22.7918 19.4896 23.595 18.909C23.8015 18.7595 23.9484 18.7466 24.1626 18.9019C25.0008 19.5083 25.8486 20.1025 26.7023 20.6863C27.5702 21.2804 28.4711 21.3154 29.3759 20.7723C29.6128 20.6306 29.8076 20.6267 30.027 20.7911C30.3636 21.0429 30.715 21.2752 31.0522 21.5257C31.9589 22.2007 32.1686 23.4292 31.5324 24.3074C30.8671 25.2258 29.6562 25.4472 28.7242 24.8019C27.209 23.7515 25.6991 22.6946 24.1982 21.6247C23.9678 21.4603 23.8202 21.4474 23.5847 21.615C22.0831 22.6842 20.5706 23.7379 19.058 24.7909C18.3992 25.2498 17.6937 25.3164 16.9805 24.9423C16.2634 24.5663 15.8841 23.9612 15.8828 23.0693L15.8835 23.0699Z" fill="#50893C"/>
<path d="M18.0929 18.8009C18.1111 18.2663 18.2949 17.8288 18.7214 17.5278C20.3769 16.3589 22.0371 15.1959 23.7036 14.0426C23.7865 13.985 23.9787 13.9863 24.0622 14.0439C25.7203 15.1901 27.3753 16.3421 29.0192 17.5084C29.7363 18.0177 29.8839 18.9581 29.392 19.6584C28.8982 20.3607 27.9416 20.5406 27.2141 20.0429C26.1818 19.3368 25.1592 18.6164 24.1411 17.8902C23.9509 17.7543 23.8214 17.753 23.6305 17.8889C22.6124 18.6151 21.5911 19.3374 20.5569 20.0403C19.6061 20.6862 18.3622 20.1807 18.1272 19.0708C18.1072 18.9763 18.102 18.8792 18.0923 18.8015L18.0929 18.8009Z" fill="#50893C"/>
<path d="M23.8939 28.0034C23.9813 28.1147 24.0564 28.2021 24.1224 28.2966C25.1806 29.8066 26.2368 31.3178 27.2957 32.8265C27.4633 33.0653 27.5261 33.3132 27.394 33.585C27.2568 33.8672 27.0128 33.9934 26.7119 33.994C24.8246 33.9979 22.9373 34.0063 21.05 33.9908C20.4009 33.9856 20.0935 33.3792 20.4591 32.8517C21.5335 31.301 22.6202 29.758 23.7036 28.2138C23.7515 28.1458 23.8156 28.0895 23.8946 28.0041L23.8939 28.0034Z" fill="#50893C"/>
</g>
<rect x="0.5" y="0.5" width="47" height="47" rx="23.5" stroke="#E2E8F0"/>
<defs>
<clipPath id="clip0_27_15545">
<rect width="48" height="48" rx="24" fill="white"/>
</clipPath>
</defs>
</svg>
