<svg width="48" height="48" viewBox="0 0 48 48" fill="none" xmlns="http://www.w3.org/2000/svg">
<g clip-path="url(#clip0_27_15063)">
<rect width="48" height="48" rx="24" fill="white"/>
<path fill-rule="evenodd" clip-rule="evenodd" d="M20.3967 19.6869C21.2765 20.0221 22.1564 20.3992 22.9944 20.8182C20.271 21.9076 17.5894 23.2484 15.0754 24.7568C14.2374 24.2959 13.3575 23.8769 12.4777 23.4998C15.0335 22.0333 17.6732 20.7344 20.3967 19.6869ZM17.1704 18.5557C14.3212 19.4356 11.5978 20.6506 9 22.0752C9.83799 22.3685 10.6341 22.7037 11.4721 23.0389C13.986 21.5724 16.6257 20.3154 19.3911 19.3099C18.6369 19.0166 17.8827 18.7652 17.1704 18.5557Z" fill="#0052C2"/>
<path fill-rule="evenodd" clip-rule="evenodd" d="M26.3464 19.5615C24.1257 18.4721 21.7793 17.5503 19.3911 16.838C18.5531 17.0894 17.7151 17.3408 16.8771 17.6341C19.3492 18.3464 21.7374 19.2682 24.0419 20.3994L26.3464 19.5615ZM29.9916 18.514C27.6871 17.5084 25.3408 16.6704 22.9106 16C22.1564 16.1676 21.3603 16.3352 20.6061 16.5447C22.9944 17.257 25.3408 18.1369 27.6033 19.1844C28.3994 18.933 29.1955 18.7235 29.9916 18.514ZM35.8575 20.4832C30.1173 22.4106 24.7542 25.176 19.8939 28.6117C21.1089 29.3659 22.2821 30.162 23.4553 31C28.0223 27.3547 33.1341 24.338 38.581 22.0335C37.7011 21.4469 36.7793 20.9441 35.8575 20.4832ZM31.919 18.5978C25.9274 20.148 20.3547 22.7039 15.2849 26.0559C16.4162 26.6006 17.5475 27.2291 18.6369 27.8575C23.581 24.4218 29.0698 21.7821 34.9357 19.9804C33.9302 19.4777 32.9246 19.0168 31.919 18.5978Z" fill="#E31932"/>
</g>
<rect x="0.5" y="0.5" width="47" height="47" rx="23.5" stroke="#E2E8F0"/>
<defs>
<clipPath id="clip0_27_15063">
<rect width="48" height="48" rx="24" fill="white"/>
</clipPath>
</defs>
</svg>
