<svg width="36" height="36" viewBox="0 0 36 36" fill="none" xmlns="http://www.w3.org/2000/svg">
<rect width="35.2" height="35.2" rx="17.6" fill="#FFB2C8" fill-opacity="0.3"/>
<g clip-path="url(#clip0_4136_15591)">
<path d="M11.7261 11.021H13.5398C13.6563 11.021 13.7501 11.1148 13.7501 11.2314V11.6038C13.7501 11.7203 13.6563 11.8141 13.5398 11.8141H11.7261C11.6096 11.8141 11.5157 11.7203 11.5157 11.6038V11.2314C11.5157 11.1148 11.6096 11.021 11.7261 11.021Z" fill="#FF6482"/>
<path d="M22.4603 11.0214H24.2711C24.3877 11.0214 24.4815 11.1152 24.4815 11.2318V11.6042C24.4815 11.7207 24.3877 11.8117 24.274 11.8117H22.4632C22.3466 11.8117 22.2528 11.7179 22.2528 11.6013V11.2289C22.2528 11.1124 22.3466 11.0186 22.4632 11.0186L22.4603 11.0214Z" fill="#FF6482"/>
<path d="M15.4445 9.91846H15.0095V11.8117H15.4445V9.91846Z" fill="#FF6482"/>
<path d="M14.8161 9H21.1837C21.3003 9 21.3941 9.09381 21.3941 9.21036V9.70499C21.3941 9.82154 21.3003 9.91535 21.1837 9.91535H14.8161C14.6995 9.91535 14.6057 9.82154 14.6057 9.70499V9.21036C14.6057 9.09381 14.6995 9 14.8161 9Z" fill="#FF6482"/>
<path d="M20.9876 9.91846H20.5555V11.8117H20.9876V9.91846Z" fill="#FF6482"/>
<path d="M27 22.8752C27 23.5347 26.4656 24.0663 25.8061 24.0663H10.1939C9.53443 24.0663 9 23.5319 9 22.8752V13.3976C9 12.7381 9.53443 12.2065 10.1939 12.2065H25.8089C26.4684 12.2065 27.0028 12.741 27.0028 13.3976V22.8724L27 22.8752ZM21.1383 17.1159H19.0205V14.9981C19.0205 14.7763 18.8414 14.5973 18.6197 14.5973H17.3831C17.1614 14.5973 16.9823 14.7763 16.9823 14.9981V17.1159H14.8617C14.6399 17.1159 14.4608 17.295 14.4608 17.5167V18.7533C14.4608 18.975 14.6399 19.1541 14.8617 19.1541H16.9823V21.2748C16.9823 21.4965 17.1614 21.6756 17.3831 21.6756H18.6197C18.8414 21.6756 19.0205 21.4965 19.0205 21.2748V19.1541H21.1383C21.3601 19.1541 21.5392 18.975 21.5392 18.7533V17.5167C21.5392 17.295 21.3601 17.1159 21.1383 17.1159Z" fill="#FF6482"/>
</g>
<defs>
<clipPath id="clip0_4136_15591">
<rect width="18" height="15.0663" fill="white" transform="translate(9 9)"/>
</clipPath>
</defs>
</svg>
