<svg width="36" height="36" viewBox="0 0 36 36" fill="none" xmlns="http://www.w3.org/2000/svg">
<rect width="35.2" height="35.2" rx="17.6" fill="#ECE7FF"/>
<g clip-path="url(#clip0_12_8313)">
<path d="M17.4993 11.44C16.0626 11.44 13.8473 11.7595 13.0773 11.8779V16.1178C15.3714 15.029 17.3272 14.6946 17.4491 14.6754L17.5007 14.6665L17.5523 14.6754C17.6742 14.6946 19.63 15.029 21.9241 16.1178V11.8764C21.1527 11.758 18.9374 11.4385 17.5007 11.4385L17.4993 11.44ZM15.6682 13.6783H13.754V13.0022H15.6682V13.6783ZM18.4571 13.6783H16.5429V13.0022H18.4571V13.6783ZM21.2459 13.6783H19.3317V13.0022H21.2459V13.6783Z" fill="#8A6EFE"/>
<path d="M18.9116 10.8465L18.0212 6H16.9788L16.0884 10.8465L17.4807 10.7651L18.9116 10.8465Z" fill="#8A6EFE"/>
<path d="M26.1799 25.8385C26.1196 25.6921 26.0795 25.5353 26.0609 25.3548C26.0451 25.2497 26.048 25.2098 26.035 25.0337C26.0723 23.9227 26.1713 22.9478 26.1713 22.9478C26.1713 22.9478 25.6221 23.7837 25.1446 24.2615C24.9826 24.4242 24.812 24.5944 24.7417 24.6461C24.6098 24.7408 24.4693 24.8355 24.3144 24.9006C24.009 25.0426 23.662 25.1136 23.305 25.09C23.1731 25.0811 23.0397 25.05 22.9078 25.0189C24.3445 21.6918 24.8191 19.4505 24.9338 18.8203C23.9703 17.9992 22.9236 17.3601 21.9242 16.866C21.765 16.7876 21.6087 16.7136 21.4524 16.6426C21.3851 16.6115 21.3191 16.582 21.2517 16.5524C21.1427 16.505 21.0366 16.4577 20.9305 16.4133C20.8717 16.3882 20.8115 16.363 20.7527 16.3393C20.6079 16.2802 20.466 16.2239 20.3254 16.1722C20.2595 16.147 20.1964 16.1233 20.1319 16.0997C20.0401 16.0657 19.9498 16.0331 19.8609 16.002C19.8021 15.9813 19.7433 15.9606 19.6859 15.9414C19.5583 15.8985 19.4336 15.8571 19.3131 15.8186C19.2572 15.8008 19.2056 15.7846 19.1525 15.7683C19.0723 15.7431 18.9948 15.7195 18.9188 15.6973C18.8686 15.6825 18.8199 15.6677 18.7726 15.6544C18.6665 15.6248 18.5647 15.5967 18.4686 15.5715C18.4299 15.5612 18.3955 15.5523 18.3582 15.5434C18.2894 15.5257 18.2248 15.5094 18.1618 15.4946C18.1288 15.4872 18.0958 15.4783 18.0657 15.4709C17.9854 15.4517 17.9094 15.4339 17.8434 15.4192C17.8277 15.4162 17.8162 15.4132 17.8004 15.4103C17.7459 15.3984 17.6972 15.3881 17.6556 15.3792C17.637 15.3763 17.6226 15.3718 17.6069 15.3689C17.5638 15.36 17.5251 15.3526 17.5007 15.3481C17.4749 15.3526 17.4377 15.36 17.3946 15.3689C17.3789 15.3718 17.3631 15.3748 17.3445 15.3792C17.3029 15.3881 17.2556 15.397 17.2025 15.4088C17.1867 15.4118 17.1738 15.4147 17.1566 15.4192C17.0907 15.4339 17.0161 15.4502 16.9372 15.4695C16.9043 15.4769 16.8713 15.4857 16.8369 15.4931C16.7767 15.5079 16.7136 15.5242 16.6462 15.5419C16.6075 15.5523 16.573 15.5612 16.5315 15.5715C16.4368 15.5967 16.335 15.6248 16.2304 15.6544C16.1816 15.6677 16.13 15.684 16.0784 15.6988C16.0067 15.7195 15.9321 15.7417 15.8561 15.7653C15.7988 15.7831 15.7428 15.7994 15.6841 15.8186C15.5665 15.8556 15.4432 15.8955 15.317 15.9384C15.2582 15.9577 15.198 15.9798 15.1378 16.0006C15.0503 16.0316 14.9614 16.0627 14.8696 16.0967C14.8051 16.1204 14.7406 16.1441 14.6732 16.1692C14.5341 16.2225 14.3922 16.2772 14.2473 16.3364C14.1885 16.3601 14.1269 16.3867 14.0681 16.4118C13.9634 16.4562 13.8573 16.5021 13.7512 16.5494C13.6838 16.579 13.6164 16.6086 13.5476 16.6411C13.3928 16.7121 13.235 16.7861 13.0773 16.8645C12.0793 17.3586 11.0312 17.9977 10.0676 18.8188C10.1824 19.449 10.657 21.6888 12.0937 25.0175C11.9618 25.0485 11.8284 25.0796 11.6965 25.0885C11.3395 25.1121 10.9925 25.0411 10.6871 24.8991C10.5322 24.834 10.3917 24.7393 10.2598 24.6447C10.1895 24.5929 10.0189 24.4213 9.85687 24.26C9.37796 23.7807 8.83023 22.9463 8.83023 22.9463C8.83023 22.9463 8.92917 23.9212 8.96645 25.0323C8.95354 25.2083 8.95641 25.2483 8.94064 25.3533C8.922 25.5338 8.88042 25.6906 8.82163 25.837C8.70405 26.1196 8.44309 26.38 8.00146 26.488C8.42302 26.6093 8.9134 26.5072 9.23888 26.1433C9.3966 25.9672 9.51705 25.7512 9.58731 25.5175C9.62746 25.4169 9.65613 25.2409 9.6719 25.1906C9.67907 25.1846 9.68481 25.1846 9.68911 25.1876C9.69341 25.1906 9.69628 25.1965 9.69628 25.1965C9.69628 25.1994 9.69628 25.1994 9.69628 25.1994L9.80955 25.2897C9.98162 25.4139 10.1666 25.5367 10.3759 25.627C10.786 25.8193 11.2692 25.9169 11.7438 25.8859C12.217 25.8518 12.6773 25.7261 13.1074 25.4894C13.5361 25.2512 13.8889 24.8592 14.0896 24.4361C14.2947 24.013 14.3735 23.5795 14.395 23.1934L14.4008 23.0765C14.4624 23.1076 14.5226 23.1386 14.5814 23.1682C14.7521 23.2452 14.9012 23.3517 15.0503 23.439C15.3414 23.6298 15.5923 23.8325 15.8074 24.0351C16.2361 24.4435 16.5272 24.8429 16.7308 25.1713C16.7551 25.2127 16.7795 25.2527 16.8039 25.2912C16.8369 25.3503 16.8684 25.4065 16.8985 25.4598C16.9846 25.6166 17.0491 25.7971 17.1165 25.945C17.2441 26.2705 17.3473 26.5945 17.4319 26.8253C17.4592 26.8963 17.4821 26.9836 17.5036 26.9954C17.5251 26.9836 17.5481 26.8948 17.5753 26.8253C17.6599 26.5945 17.7631 26.2705 17.8908 25.945C17.9581 25.7971 18.0227 25.6166 18.1087 25.4598C18.1388 25.4051 18.1718 25.3488 18.2033 25.2912C18.2263 25.2527 18.2507 25.2127 18.2765 25.1713C18.4801 24.8429 18.7711 24.4435 19.1999 24.0351C19.4149 23.831 19.6659 23.6298 19.9569 23.439C20.1075 23.3517 20.2552 23.2452 20.4258 23.1682C20.4846 23.1386 20.5463 23.1076 20.6065 23.0765L20.6122 23.1934C20.6337 23.5795 20.7126 24.0115 20.9176 24.4361C21.1184 24.8592 21.4697 25.2512 21.8998 25.4894C22.33 25.7261 22.7888 25.8518 23.2634 25.8859C23.738 25.9169 24.2212 25.8193 24.6313 25.627C24.8406 25.5367 25.0256 25.4139 25.1977 25.2897L25.311 25.1994C25.311 25.1994 25.3095 25.1994 25.311 25.198C25.311 25.198 25.3138 25.192 25.3181 25.1891C25.3224 25.1876 25.3267 25.1876 25.3353 25.192C25.3497 25.2409 25.3798 25.4184 25.4199 25.519C25.4916 25.7527 25.6121 25.9687 25.7684 26.1448C26.0938 26.5087 26.5842 26.6108 27.0058 26.4895C26.5641 26.38 26.3032 26.1211 26.1856 25.8385H26.1799Z" fill="#8A6EFE"/>
</g>
<defs>
<clipPath id="clip0_12_8313">
<rect width="19" height="21" fill="white" transform="translate(8 6)"/>
</clipPath>
</defs>
</svg>
