<svg width="36" height="36" viewBox="0 0 36 36" fill="none" xmlns="http://www.w3.org/2000/svg">
<rect width="35.2" height="35.2" rx="17.6" fill="#FFF2D2"/>
<g clip-path="url(#clip0_12_8316)">
<path d="M21.997 22.1296C21.314 22.1296 20.7114 22.4562 20.319 22.9558L18.4561 22.1212L18.6551 22.0325C21.4946 21.3823 23.6454 18.9137 23.7893 15.9229H10.5601C10.7111 19.0431 13.0453 21.5962 16.0669 22.1071L16.0993 22.1212L14.3606 22.8995C13.9683 22.4322 13.3854 22.1296 12.7278 22.1296C11.548 22.1296 10.5869 23.0881 10.5869 24.2647C10.5869 25.4413 11.548 26.3998 12.7278 26.3998C13.9076 26.3998 14.8687 25.4413 14.8687 24.2647C14.8687 24.0888 14.8419 23.9213 14.8009 23.7581L17.2777 22.649L19.9027 23.8242C19.8731 23.9664 19.8561 24.1141 19.8561 24.2647C19.8561 25.4413 20.8172 26.3998 21.997 26.3998C23.1769 26.3998 24.1379 25.4413 24.1379 24.2647C24.1379 23.0881 23.1769 22.1296 21.997 22.1296ZM12.7278 25.1176C12.2564 25.1176 11.874 24.7362 11.874 24.2661C11.874 23.7961 12.2564 23.4132 12.7278 23.4132C12.8463 23.4132 12.9592 23.4386 13.0622 23.4822C13.1526 23.5216 13.2316 23.5793 13.3036 23.6441C13.3247 23.6638 13.3431 23.6877 13.3628 23.7102C13.4094 23.7637 13.4503 23.8228 13.4828 23.8875C13.4955 23.9143 13.511 23.9396 13.5209 23.9678C13.5562 24.0607 13.5816 24.1606 13.5816 24.2661C13.5816 24.7362 13.1991 25.1176 12.7278 25.1176ZM21.997 25.1176C21.5257 25.1176 21.1432 24.7362 21.1432 24.2661C21.1432 23.7961 21.5257 23.4132 21.997 23.4132C22.4684 23.4132 22.8508 23.7961 22.8508 24.2661C22.8508 24.7362 22.4684 25.1176 21.997 25.1176Z" fill="#F5A730"/>
<path d="M27.6082 8.80403L24.3453 9.27412C24.1915 9.29664 24.0574 9.39093 23.9855 9.52886L22.7083 11.9947C22.7083 11.9947 22.704 11.9862 22.7012 11.982L17.6982 15.2811H23.7851C23.747 14.4844 23.5522 13.7329 23.253 13.0362L24.7264 10.1904L27.7437 9.75546C28.0076 9.71746 28.1897 9.47397 28.1516 9.21078C28.1134 8.94759 27.8665 8.76744 27.6054 8.80403H27.6082Z" fill="#F5A730"/>
<path d="M17.4951 9.0083V15.2827L21.7501 10.8422C20.6324 9.77254 19.1435 9.08712 17.4951 9.0083Z" fill="#F5A730"/>
</g>
<defs>
<clipPath id="clip0_12_8316">
<rect width="17.6" height="17.6" fill="white" transform="translate(10.5601 8.7998)"/>
</clipPath>
</defs>
</svg>
